<?xml version="1.0" encoding="utf-8"?>
<!-- Svg Vector Icons : http://www.onlinewebfonts.com/icon -->
<!DOCTYPE svg PUBLIC "-//W3C//DTD SVG 1.1//EN" "http://www.w3.org/Graphics/SVG/1.1/DTD/svg11.dtd">
<svg version="1.1" xmlns="http://www.w3.org/2000/svg" xmlns:xlink="http://www.w3.org/1999/xlink" x="0px" y="0px" viewBox="0 0 1000 1000" enable-background="new 0 0 1000 1000" xml:space="preserve">
	<metadata>
		Svg Vector Icons : http://www.onlinewebfonts.com/icon
	</metadata>
	<g>
		<path d="M500,928.7C263.6,928.7,71.3,736.4,71.3,500C71.3,263.6,263.6,71.3,500,71.3c236.4,0,428.7,192.3,428.7,428.7c0,47.3-8,92.7-22.2,135.2c18.8,10.4,36,23.2,51.2,38.2c20.5-54,32.2-112.3,32.2-173.4c0-270.2-219.8-490-490-490C229.9,10,10,229.8,10,500c0,270.2,219.9,490,490,490c36,0,70.9-4.1,104.6-11.5c-12.6-17.3-22.8-36.3-30.4-56.6C550,926.1,525.3,928.7,500,928.7z" />
		<path d="M676.7,457.3H533.6V289.6c0-21.6-12.3-39.2-34-39.2s-34,17.5-34,39.2v167.7H324c-21.6,0-39.2,12.3-39.2,34c0,21.6,17.5,34,39.2,34h141.6v117.5c0,21.6,12.3,39.3,34,39.3s34-17.6,34-39.3V525.2h143.1c21.5,0,39.2-12.3,39.2-34C715.9,469.6,698.4,457.3,676.7,457.3z" />
		<path d="M903.7,706.8h-1.2c-8.6,0-15.6,2.5-22.4,6.7c-5.9-17.3-21-29.8-40.5-29.8c-8.6,0-16.8,2.4-23.5,6.7c-5.9-17.3-21.1-29.8-40.5-29.8c-7.6,0-14.6,1.9-20.9,5.2v-44.6c0-24.3-18.3-43.9-42.8-43.9c-24.5,0-44.2,19.7-44.2,43.9v170.6L640.7,765c-17.3-17.2-47.9-14.7-62.6,0c-14.7,14.7-24.4,44.3-3.3,65.4l123.6,122.8c2.6,2.5,5.4,4.7,8.3,6.5c22.6,18.4,48.4,29.3,103,29.3c124.7,0,136.3-67.3,136.3-150.3v-87.9C946,726.5,928.1,706.8,903.7,706.8L903.7,706.8z M922.7,838.7c0,70.2-0.3,127.2-113,127.2c-47.7,0-76.4-10.7-98.1-32.2l-117-116.3c-10.4-10.3-7.8-23.5,0.7-32c8.5-8.5,24-8.8,32.2-0.6c0,0,20.5,20.4,38.2,38c13.4,13.3,25.1,25,25.1,25V625.8c0-11.5,9.3-20.8,20.9-20.8c11.6,0,19.5,9.3,19.5,20.8v141.1h0.2c-0.1,0.8-0.2,1.5-0.2,2.3c0,6.4,5.2,11.6,11.7,11.6s11.7-5.2,11.7-11.6c0-0.8-0.1-1.6-0.2-2.3h0.2v-57.8c0-11.5,8.4-20.9,19.9-20.9c0,0,20.5-0.3,20.5,20.9v76.3h0.2c-0.2,0.7-0.2,1.5-0.2,2.3c0,6.4,5.2,11.6,11.7,11.6c6.4,0,11.7-5.1,11.7-11.6c0-0.8-0.1-1.6-0.2-2.3h0.2v-53.2c0-11.5,8.2-20.8,19.8-20.8c0,0,20.9,1.3,20.9,20.8v67.1h0.2c-0.1,0.7-0.2,1.5-0.2,2.3c0,6.4,5.2,11.6,11.7,11.6c6.4,0,11.3-5.1,11.3-11.6c0-0.8-0.1-1.6-0.2-2.3h0.2v-45.8c0-11.5,8.7-20.8,20.3-20.8c0,0,20.3-0.8,20.3,20.8L922.7,838.7L922.7,838.7z M650.3,686.7v-38.9c-3.7-8.3-5.8-17.5-5.8-27.1c0-36.8,29.8-66.7,66.7-66.7c36.8,0,66.7,29.8,66.7,66.7c0,5.1-0.6,9.9-1.7,14.6c8.4,0.4,16,3.8,21.5,9.4c2.1-7.7,3.4-15.7,3.4-24c0-49.6-40.3-89.8-89.8-89.8c-49.6,0-89.9,40.2-89.9,89.8C621.2,646.9,632.5,670.3,650.3,686.7L650.3,686.7z" />
	</g>
</svg>
